# xmcd CD database file
#
# Track frame offsets:
#	150
#	49850
#	80832
#	123877
#	173627
#	206462
#	247947
#	273355
#
# Disc length: 4069 seconds
#
# Revision: 0
# Processed by: cddbd v1.5.2PL0 Copyright (c) Steve Scherf et al.
# Submitted via: CDex 1.70beta2
#
DISCID=650fe308
DTITLE=Laurent Fickelson - Under The Sixth
DYEAR=1999
DGENRE=Jazz
TTITLE0=Under The Sixth
TTITLE1=Hush
TTITLE2=Chair
TTITLE3=65 Bis
TTITLE4=Barde's Tale
TTITLE5=Mr.Charles
TTITLE6=Le Kick
TTITLE7=65 Bis ( Live In Paris )
EXTD=YEAR: 1999
EXTT0=
EXTT1=
EXTT2=
EXTT3=
EXTT4=
EXTT5=
EXTT6=
EXTT7=
PLAYORDER=
